<svg xmlns="http://www.w3.org/2000/svg" viewBox="0 0 16 16" fill="#ccc"><path d="M5.418 1.92a1.793 1.793 0 0 0-.793.234c-.496.287-.797.79-.918 1.338-.121.549-.091 1.16.03 1.815.016.088.046.183.066.273-.195.06-.4.117-.578.186-.628.241-1.155.53-1.551.89C1.278 7.016 1 7.48 1 8c0 .52.278.984.674 1.344.396.36.923.649 1.55.89.195.075.416.137.63.202-.03.145-.07.297-.09.437-.093.646-.093 1.23.029 1.742s.387.974.832 1.23c.445.258.976.256 1.48.106.505-.15 1.013-.442 1.526-.846.11-.086.221-.198.332-.294.08.073.158.16.238.228.507.432 1.021.762 1.557.932.536.17 1.12.161 1.617-.125.496-.287.797-.79.918-1.338.121-.549.091-1.16-.03-1.815-.016-.088-.046-.183-.066-.273.195-.06.4-.117.578-.186.628-.241 1.155-.53 1.551-.89C14.722 8.984 15 8.52 15 8c0-.52-.278-.984-.674-1.344-.396-.36-.923-.649-1.55-.89-.195-.075-.416-.137-.63-.202.03-.145.07-.297.09-.437.093-.646.093-1.23-.029-1.742s-.387-.974-.832-1.23c-.445-.258-.976-.256-1.48-.106-.505.15-1.013.442-1.526.846-.11.086-.221.198-.332.294-.08-.073-.158-.16-.238-.228-.507-.432-1.021-.762-1.557-.932a2.284 2.284 0 0 0-.824-.11zm.068.992c.132-.007.28.015.453.07.348.11.773.366 1.213.74.056.048.114.112.17.163-.337.36-.668.762-.99 1.203a14.12 14.12 0 0 0-1.562.242c-.015-.066-.04-.139-.051-.203-.105-.569-.112-1.064-.033-1.42.078-.356.213-.557.439-.687.113-.066.23-.101.361-.108zm5.108.031a.605.605 0 0 1 .281.077c.153.088.282.26.361.595.08.335.09.81.01 1.37-.015.104-.049.225-.07.335a14.157 14.157 0 0 0-1.494-.23 14.01 14.01 0 0 0-.942-1.188c.082-.07.168-.157.248-.22.444-.35.862-.578 1.192-.676.165-.05.3-.068.414-.063zm-2.57 1.66c.117.133.233.267.349.41C8.247 5.012 8.128 5 8 5c-.119 0-.23.011-.348.014.124-.148.247-.276.371-.41zM8 6c.39 0 .767.019 1.137.045a16.584 16.584 0 0 1 1.125 1.947c-.16.334-.335.67-.53 1.008-.193.335-.396.652-.603.955A15.97 15.97 0 0 1 8 10c-.39 0-.767-.019-1.137-.045a16.584 16.584 0 0 1-1.125-1.947c.16-.334.335-.67.53-1.008.193-.335.396-.652.603-.955A15.97 15.97 0 0 1 8 6zm-2.398.186c-.066.107-.136.204-.2.314-.063.11-.113.22-.173.33-.07-.181-.131-.357-.19-.533.187-.039.364-.08.563-.111zm4.8 0c.186.03.35.07.526.105-.054.171-.101.338-.166.516-.056-.102-.106-.206-.164-.307-.062-.107-.132-.209-.196-.314zm1.498.351c.174.054.36.102.516.162.548.211.975.46 1.236.697.262.239.348.434.348.604 0 .17-.086.365-.348.604-.261.238-.688.486-1.236.697-.145.056-.32.102-.48.152a13.976 13.976 0 0 0-.58-1.465c.219-.496.4-.98.544-1.45zm-7.836.01c.157.482.355.972.58 1.465-.219.496-.4.98-.544 1.45-.174-.053-.36-.101-.516-.161-.548-.211-.975-.46-1.236-.697C2.086 8.365 2 8.17 2 8c0-.17.086-.365.348-.604.261-.238.688-.486 1.236-.697.145-.056.32-.102.48-.152zM8 7a1 1 0 0 0 0 2 1 1 0 0 0 0-2zm2.771 2.17c.07.181.131.357.19.533-.187.039-.364.08-.563.111.066-.107.136-.204.2-.314.063-.11.113-.22.173-.33zm-5.533.023c.056.102.106.206.164.307.062.107.132.209.196.314-.186-.03-.35-.07-.526-.105.054-.171.101-.338.166-.516zm5.992 1.477c.015.066.04.139.051.203.105.569.112 1.064.033 1.42-.078.356-.213.557-.439.687s-.467.148-.814.038c-.348-.11-.773-.366-1.213-.74-.056-.048-.114-.112-.17-.163.337-.36.668-.762.99-1.203a14.12 14.12 0 0 0 1.562-.242zm-6.406.01c.472.098.968.178 1.494.23.303.424.617.823.942 1.188-.082.07-.168.157-.248.22-.444.35-.862.578-1.192.676-.33.099-.542.075-.695-.014-.153-.088-.282-.26-.361-.595-.08-.335-.09-.81-.01-1.37.015-.104.049-.225.07-.335zm2.803.306c.126.003.245.014.373.014.119 0 .23-.011.348-.014-.124.148-.247.276-.371.41a12.008 12.008 0 0 1-.35-.41z"/></svg>
