<svg xmlns="http://www.w3.org/2000/svg" viewBox="0 0 32 32" fill="#ccc"><path d="M15.5 4C11.364 4 8 8.549 8 14.14c0 2.725.809 5.187 2.107 7.01a1.75 1.75 0 0 0 1.643 2.35 1.75 1.75 0 1 0 0-3.5 1.75 1.75 0 0 0-.053.002C10.654 18.521 10 16.444 10 14.141 10 9.65 12.468 6 15.5 6c2.17 0 4.045 1.874 4.94 4.582.771.228 1.538.516 2.285.875C21.852 7.165 18.948 4 15.5 4zm-1.25 7.75a1.75 1.75 0 1 0 0 3.5 1.75 1.75 0 0 0 1.654-1.184c1.896-.226 4.127.327 6.162 1.579 3.85 2.368 5.891 6.6 4.46 9.244-.505.929-1.392 1.585-2.57 1.9-1.216.325-2.631.261-4.071-.137a16.165 16.165 0 0 1-1.83 1.493c1.417.558 2.865.853 4.23.853.761 0 1.497-.09 2.186-.273 1.722-.461 3.04-1.457 3.81-2.881 1.987-3.67-.283-8.9-5.168-11.905-2.525-1.554-5.373-2.202-7.79-1.82a1.75 1.75 0 0 0-1.073-.369zm-8.113 4.389c-2.904 2.974-3.984 6.82-2.422 9.705.772 1.424 2.088 2.42 3.81 2.88a8.45 8.45 0 0 0 2.188.274c2.076 0 4.348-.671 6.404-1.937 2.64-1.624 4.505-3.897 5.358-6.221a1.75 1.75 0 0 0-.725-3.34 1.75 1.75 0 0 0-1.299 2.922c-.76 1.826-2.297 3.654-4.379 4.935-2.352 1.446-4.979 1.982-7.029 1.434-1.179-.315-2.067-.972-2.57-1.9-.941-1.737-.375-4.16 1.21-6.29a14.634 14.634 0 0 1-.546-2.462z"/></svg>
