<svg xmlns="http://www.w3.org/2000/svg" viewBox="0 0 27 27"><rect width="27" height="27" fill="#ad2b2b" rx="2.5"/><g fill="none" stroke="#fff" stroke-linecap="round" stroke-width=".8"><path d="M3.5 2.5h4a2 2 0 0 1 2 2 2.333 2.333 0 0 1-1.68 2.24A6 6 0 0 0 3.5 12.5v2a2 2 0 0 0 2 2h8a4 4 0 0 1 0 8h-4"/><path d="M3.5 4.5h6a2 2 0 0 1 0 4 4 4 0 0 0-4 4v2"/><circle cx="9.5" cy="12.5" r="2"/><path d="M9.5 16.5a4 4 0 1 1-4 4v-1a1 1 0 0 0-2 0v5m11.85-5v2"/><circle cx="9.5" cy="20.5" r="2"/><path d="M13.5 2.5h3a1 1 0 0 1 0 2 3 3 0 0 0-3 3v7m10-12h-3a1 1 0 0 0 0 2 3 3 0 0 1 3 3v6a3 3 0 0 1-3 3 1 1 0 0 0 0 2h2a1 1 0 0 1 0 2h-2a1 1 0 0 0 0 2h2a1 1 0 0 1 0 2h-3"/><path d="M16.5 6.5h4a1 1 0 0 1 0 2h-4a1 1 0 0 1 0-2Z"/><circle cx="18.5" cy="12.5" r="2"/></g><g fill="#fff"><circle cx="9.5" cy="12.5" r=".5"/><circle cx="9.5" cy="20.5" r=".5"/><circle cx="18.5" cy="12.5" r=".5"/><circle cx="17" cy="7.5" r=".5"/><circle cx="18.5" cy="7.5" r=".5"/><circle cx="20" cy="7.5" r=".5"/></g></svg>
